<svg width="24" height="24" viewBox="0 0 24 24" fill="none" xmlns="http://www.w3.org/2000/svg">
<g id="Vector (10) 1" clip-path="url(#clip0_6533_514)">
<path id="Vector" d="M9.4089 14.0151L10.1168 14.723L10.8239 14.0143L15.969 8.85721L15.9699 8.8563C16.0073 8.81962 16.0576 8.79905 16.11 8.79905C16.1628 8.79905 16.2135 8.81995 16.251 8.85721L16.2518 8.85799C16.2705 8.87659 16.2854 8.89872 16.2956 8.92308C16.3057 8.94745 16.311 8.97359 16.311 9C16.311 9.02641 16.3057 9.05255 16.2956 9.07691C16.2854 9.10128 16.2705 9.1234 16.2518 9.14199L16.2489 9.14489L10.2518 15.142L10.251 15.1428C10.2138 15.1793 10.1639 15.1998 10.1118 15.2H10.1102C10.0839 15.2002 10.0578 15.1951 10.0334 15.1852C10.0096 15.1754 9.98789 15.1612 9.96947 15.1432L7.15261 12.3144L7.1246 12.2863L7.09446 12.2605C7.07352 12.2425 7.05652 12.2205 7.04452 12.1957C7.03251 12.1708 7.02576 12.1438 7.0247 12.1163C7.02364 12.0887 7.02828 12.0613 7.03833 12.0356C7.04839 12.0099 7.06364 11.9866 7.08313 11.9671C7.10262 11.9476 7.12593 11.9324 7.15159 11.9223C7.17726 11.9123 7.20473 11.9076 7.23227 11.9087C7.25982 11.9098 7.28684 11.9165 7.31165 11.9285C7.33647 11.9405 7.35853 11.9575 7.37646 11.9785L7.40158 12.0078L7.4289 12.0351L9.4089 14.0151ZM5.88873 2.85383C7.69767 1.64514 9.82441 1 12 1C13.4445 1 14.8749 1.28452 16.2095 1.83732C17.5441 2.39013 18.7567 3.20038 19.7782 4.22182C20.7996 5.24327 21.6099 6.4559 22.1627 7.79048C22.7155 9.12506 23 10.5555 23 12C23 14.1756 22.3549 16.3023 21.1462 18.1113C19.9375 19.9202 18.2195 21.3301 16.2095 22.1627C14.1995 22.9952 11.9878 23.2131 9.85401 22.7886C7.72022 22.3642 5.76021 21.3165 4.22183 19.7782C2.68345 18.2398 1.6358 16.2798 1.21137 14.146C0.786928 12.0122 1.00477 9.80047 1.83733 7.79048C2.66989 5.78049 4.07979 4.06253 5.88873 2.85383ZM6.11096 20.8136C7.85412 21.9783 9.90352 22.6 12 22.6C14.8113 22.6 17.5074 21.4832 19.4953 19.4953C21.4832 17.5074 22.6 14.8113 22.6 12C22.6 9.90351 21.9783 7.85411 20.8136 6.11095C19.6488 4.36779 17.9933 3.00917 16.0564 2.20688C14.1195 1.40459 11.9882 1.19467 9.93205 1.60368C7.87585 2.01268 5.98711 3.02223 4.50467 4.50467C3.02224 5.9871 2.01268 7.87584 1.60368 9.93204C1.19468 11.9882 1.40459 14.1195 2.20688 16.0564C3.00917 17.9933 4.3678 19.6488 6.11096 20.8136Z" fill="black" stroke="black" stroke-width="2"/>
</g>
<defs>
<clipPath id="clip0_6533_514">
<rect width="24" height="24" fill="white"/>
</clipPath>
</defs>
</svg>
